<svg width="127.1" height="40" viewBox="0 0 197 62" fill="none" xmlns="http://www.w3.org/2000/svg">
<g clip-path="url(#clip0_99_950)">
<path d="M37.4374 44.3717C37.2557 49.3485 35.2031 54.4334 31.6229 57.4492C21.1783 66.4358 2.16677 61.5199 0.369929 47.2658C0.0940092 45.5821 -0.0136669 44.0674 0.00652238 42.5122C0.0267116 37.9817 -0.0271264 21.2933 0.0267116 13.8822C0.0603604 13.2196 0.457416 13.2466 2.11293 13.2398C5.54511 13.321 11.5346 13.0776 14.7716 13.3345C15.135 13.4562 15.1283 13.747 15.1485 14.1054C15.1619 17.5134 15.1485 35.2702 15.1485 41.1598C15.2225 46.0351 14.5562 53.8992 20.6198 54.731C26.0036 55.61 29.3953 53.1284 29.7453 47.1847C30.2366 38.1981 29.8059 20.6915 29.9472 14.3758C29.9472 13.6456 30.0145 13.3751 30.9297 13.2872C32.1949 13.2128 35.479 13.1993 36.5827 13.2939C37.1817 13.3751 37.4037 13.4765 37.4643 13.9837C37.471 17.8041 37.5383 36.8119 37.4509 44.2838V44.3717H37.4374Z" fill="#B23537"/>
<path d="M56.4964 26.0875C56.7319 26.8989 56.5906 28.799 56.6175 29.7389C56.5637 30.3948 56.6579 30.8208 56.1195 31.0034C53.6833 31.1048 46.9671 31.071 44.403 31.0169C43.6022 30.8546 43.905 29.6645 43.8377 28.8869C43.8377 28.2648 43.8377 27.5954 43.8444 27.0882C43.8781 26.4594 43.8175 25.8711 44.477 25.7967C45.7692 25.7426 50.4531 25.79 53.5353 25.7697C54.3563 25.8373 56.2945 25.5736 56.4762 26.0334L56.5031 26.0875H56.4964Z" fill="#B23537"/>
<path d="M99.0417 31.2536C99.3984 45.6159 82.9576 53.9195 71.7728 45.0276C70.7566 44.2162 69.9557 43.1951 70.023 45.0276C70.023 48.395 70.023 57.6521 70.023 60.6409C70.0096 61.0128 70.023 61.3847 69.8144 61.6416C69.5721 61.9121 69.1549 61.9391 68.7848 61.9729C67.5936 62.0203 65.4334 62.027 64.0941 61.9797C63.2529 61.9459 62.876 61.8242 62.9635 60.8572C62.9703 55.5965 62.9568 42.4243 62.9635 36.4873C63.0106 32.6803 62.6876 29.3602 63.7846 25.6006C66.4832 15.4983 78.1593 11.0625 87.5204 14.3488C94.6001 16.614 99.1898 23.7005 99.0552 31.1116V31.2536H99.0417ZM91.814 30.9087C91.9486 22.9026 84.6737 17.5066 77.197 20.0694C67.385 23.288 67.7753 39.4828 77.8296 42.0929C85.2121 44.1959 91.9486 38.6511 91.814 31.0507V30.9087Z" fill="#B23537"/>
<path d="M139.858 30.5368C139.938 34.6278 139.878 43.8375 139.871 47.1508C139.898 47.9352 139.239 48.1043 138.572 48.111C137.563 48.1448 135.665 48.1584 134.494 48.1043C133.962 48.0637 133.397 47.942 133.128 47.4484C132.731 46.7181 132.899 45.555 132.67 44.8045C132.569 44.4461 132.401 44.2838 132.145 44.3379C123.161 51.7422 109.412 49.673 105.065 38.171C101.996 30.192 104.479 20.0559 112.138 15.762C123.996 9.14212 139.501 15.9581 139.844 30.4489V30.5436L139.858 30.5368ZM132.805 30.9155C132.966 22.3955 124.588 16.9048 116.956 20.5833C108.968 24.4443 109.089 37.8938 117.192 41.5046C124.837 44.9262 132.973 39.4828 132.812 31.0575V30.9155H132.805Z" fill="#B23537"/>
<path d="M147.233 48.0096C146.722 47.9352 146.957 46.38 146.903 45.413C146.971 39.8344 146.776 31.754 146.984 25.986C147.415 19.5487 151.628 15.0723 158.882 14.1189C159.878 13.9769 161.386 13.8078 161.904 14.5449C162.557 15.4375 162.658 18.1963 161.817 19.312C160.848 20.2722 159.078 20.164 157.913 20.8673C154.952 22.1656 153.923 25.8305 154.03 28.6638C153.963 34.1882 154.158 44.3379 153.956 47.6918C153.66 48.2463 153.142 48.0907 152.375 48.1584C151.049 48.1313 148.505 48.2868 147.287 48.0366L147.233 48.0164V48.0096Z" fill="#B23537"/>
<path d="M181.744 30.2325C184.234 33.742 193.924 43.8646 196.865 47.4754C197.316 48.0434 196.489 48.0096 196.112 48.0434C194.894 48.084 192.033 48.0705 190.546 48.0569C189.389 48.0367 188.81 47.9487 188.137 47.1576C185.808 44.5407 176.784 34.2762 174.893 32.1664C174.274 31.4902 174.294 31.8419 174.287 33.458C174.206 37.7383 174.455 44.4664 174.179 47.3537C173.964 47.9217 173.527 47.9487 172.86 48.0299C171.777 48.0975 169.913 48.0705 168.796 48.0637C167.894 47.9893 167.302 48.1651 167.154 47.5498C167.12 43.5738 167.154 5.78144 167.14 0.750579C167.053 0.128483 167.638 0.0541018 168.257 0.0338161C169.307 -0.00675542 171.622 -0.00675542 172.86 0.0338161C173.453 0.0608637 174.294 0.0743876 174.274 0.845246C174.307 2.13001 174.274 5.60563 174.287 9.69659C174.287 14.9709 174.274 24.3564 174.301 28.5623C174.314 28.9275 174.428 28.9951 174.731 28.6976C176.595 26.953 185.647 17.04 188.796 14.2203C189.705 13.8011 190.56 13.9431 191.798 13.9025C193.299 13.9431 195.412 13.8011 196.778 14.0039C197.094 14.0986 196.98 14.2879 196.818 14.4976C195.849 15.5592 192.464 18.9739 189.193 22.3481L184.678 26.98C183.143 28.6773 182.228 29.2182 181.75 30.2055V30.2393L181.744 30.2325Z" fill="#B23537"/>
</g>
<defs>
<clipPath id="clip0_99_950">
<rect width="197" height="62" fill="white"/>
</clipPath>
</defs>
</svg>
